# xmcd
#
# Track frame offsets: 
#        150
#        19245
#        29980
#        43460
#        63267
#        81515
#        93212
#        105145
#        127230
#        141985
#        164225
#        179055
#        190822
#        200502
#        217762
#        236825
#
# Disc length: 3275 seconds
#
# Revision: 2
# Processed by: cddbd v1.5.2PL0 Copyright (c) Steve Scherf et al.
# Submitted via: ExactAudioCopy v1.0b3
#
DISCID=f80cc910
DTITLE=Ralph Stanley and the Clinch Mountain Boys - Live In Japan (May 5
DTITLE=, 1971) CD2
DYEAR=1997
DGENRE=Bluegrass
TTITLE0=Orange Blossom Special
TTITLE1=Blue Moon of Kentucky
TTITLE2=Long Journey Home
TTITLE3=Pretty Polly
TTITLE4=Daybreak in Tokyo
TTITLE5=All the Good Times Are Past and Gone
TTITLE6=How Far to Little Rock?
TTITLE7=Mountain Dew
TTITLE8=Rank Strangers
TTITLE9=Walkin' In My Sleep
TTITLE10=I'm A Man of Constant Sorrow
TTITLE11=I Hear A Choo-Choo Coming
TTITLE12=Old Country Church
TTITLE13=Hard Times
TTITLE14=The White Dove
TTITLE15=Olt-Time Pickin'
EXTD=
EXTT0=
EXTT1=
EXTT2=
EXTT3=
EXTT4=
EXTT5=
EXTT6=
EXTT7=
EXTT8=
EXTT9=
EXTT10=
EXTT11=
EXTT12=
EXTT13=
EXTT14=
EXTT15=
PLAYORDER=
